<?xml version="1.0" encoding="UTF-8" standalone="no"?>
<?xml-stylesheet href="base.css"  type="text/css" ?>
<!DOCTYPE svg PUBLIC "-//W3C//DTD SVG 1.1//EN" "http://www.w3.org/Graphics/SVG/1.1/DTD/svg11.dtd">
<svg width="270" height="90" view=" 0 0 270 90"  version="1.1" xmlns="http://www.w3.org/2000/svg" xmlns:xlink="http://www.w3.org/1999/xlink">

<defs>
   	<mask id="maskbottom">
	<rect x="0" y="0" width="300" height="80" style="fill: url(#whitetoblack);" />
	</mask>
   	<mask id="masktop">
	<rect x="0" y="0" width="300" height="90" style="fill: url(#blacktowhite);" />
	</mask>
 	 <mask id="maskround">
        <rect x="0" y="0" rx="0" ry="0"  width="270" height="70" style="fill: white" />
        <rect x="10" y="35" rx="20" ry="20"  width="250" height="100" style="fill: black" />
        </mask>


<mask id="maskouter">
   <rect x="0" y="0" rx="0" ry="0" width="270" height="70" style="fill: black;"/>
   <rect x="10" y="10" rx="10" ry="10" width="250" height="70" style="fill: white;"/>
</mask>

   <filter id="blurbasic" filterRes="300">
     <feGaussianBlur in="SourceGraphic" stdDeviation="2"/>
   </filter>

   <filter id="blurshadow" filterRes="300">
     <feGaussianBlur in="SourceGraphic" stdDeviation="4"/>
   </filter>

   <linearGradient id="whitetoblack" x1="0%" y1="0%" x2="0%" y2="100%">
     <stop offset="0%"   style="stop-color:black;opacity:1"  />
     <stop offset="100%" style="stop-color:white;opacity:1" />
   </linearGradient>

  <linearGradient id="blacktowhite" x1="0%" y1="0%" x2="0%" y2="100%">
     <stop offset="0%" style="stop-color:white;opacity:1" />
     <stop offset="100%"   style="stop-color:black;opacity:1"  />
   </linearGradient>

</defs> 
   <rect x="10" y="10" rx="10" ry="10" width="250" height="70" style="fill: black;" filter="url(#blurshadow)" />
  <g mask="url(#maskouter)"> 
   <rect x="10" y="10" rx="10" ry="10" width="250" height="70" class="installbuttonbackground"/>
   <rect x="10" y="10" rx="10" ry="10" width="250" height="70" style="fill: white;" filter="url(#blurbasic)" mask="url(#maskbottom)"  />
   <g mask="url(#maskround)"> 
   <rect x="15" y="15" rx="10" ry="10" width="240" height="60" style="fill: white;" mask="url(#masktop)"  />
   </g>
  </g>
</svg>
