<svg contentScriptType="text/ecmascript" xmlns:xlink="http://www.w3.org/1999/xlink" zoomAndPan="magnify" contentStyleType="text/css" width="72px" height="96px"  viewBox="0 0 72 96" preserveAspectRatio="xMidYMid meet" xmlns="http://www.w3.org/2000/svg" version="1.0">

<g>


<!-- no repeat --> 

<image x="0" y="0" width="24px" height="24px" xlink:href="../../../../library/Media/base-button-glassy-40.svg"> </image>
<image x="0" y="0" width="24px" height="24px" xlink:href="../../../../library/Media/icon-norepeat.svg"> </image>

<image x="0" y="24" width="24px" height="24px" xlink:href="../../../../library/Media/base-button-glassy-40.svg"> </image>
<image x="0" y="24" width="24px" height="24px" xlink:href="../../../../library/Media/icon-norepeat.svg"> </image>

<image x="0" y="48" width="24px" height="24px" xlink:href="../../../../library/Media/base-button-glassy-40-active.svg"> </image>
<image x="0" y="48" width="24px" height="24px" xlink:href="../../../../library/Media/icon-norepeat.svg"> </image>


<!-- repeat -->

<image x="24" y="0" width="24px" height="24px" xlink:href="../../../../library/Media/base-button-glassy-40.svg"> </image>
<image x="24" y="0" width="24px" height="24px" xlink:href="../../../../library/Media/icon-repeat.svg"> </image>

<image x="24" y="24" width="24px" height="24px" xlink:href="../../../../library/Media/base-button-glassy-40.svg"> </image>
<image x="24" y="24" width="24px" height="24px" xlink:href="../../../../library/Media/icon-repeat.svg"> </image>

<image x="24" y="48" width="24px" height="24px" xlink:href="../../../../library/Media/base-button-glassy-40-active.svg"> </image>
<image x="24" y="48" width="24px" height="24px" xlink:href="../../../../library/Media/icon-repeat.svg"> </image>

<!-- repeat one --> 

<image x="48" y="0" width="24px" height="24px" xlink:href="../../../../library/Media/base-button-glassy-40.svg"> </image>
<image x="48" y="0" width="24px" height="24px" xlink:href="../../../../library/Media/icon-repeat-one.svg"> </image>

<image x="48" y="24" width="24px" height="24px" xlink:href="../../../../library/Media/base-button-glassy-40.svg"> </image>
<image x="48" y="24" width="24px" height="24px" xlink:href="../../../../library/Media/icon-repeat-one.svg"> </image>

<image x="49" y="48" width="24px" height="24px" xlink:href="../../../../library/Media/base-button-glassy-40-active.svg"> </image>
<image x="48" y="48" width="24px" height="24px" xlink:href="../../../../library/Media/icon-repeat-one.svg"> </image>

</g>

</svg>
